<svg xmlns="http://www.w3.org/2000/svg" viewBox="0 0 36 45" x="0px" y="0px"><title>Монтажная область 55</title><path d="M30.17,9.06a3.48,3.48,0,1,1-3.48-3.47A3.48,3.48,0,0,1,30.17,9.06Z"/><path d="M14.52,10.8a3.48,3.48,0,1,1-3.47-3.48A3.48,3.48,0,0,1,14.52,10.8Z"/><path d="M33.62,14.45,29.28,35.31a.88.88,0,0,1-.85.69H25a.88.88,0,0,1-.85-.69L19.76,14.45a.85.85,0,0,1,.17-.72.87.87,0,0,1,.68-.32H32.77a.87.87,0,0,1,.68.32A.85.85,0,0,1,33.62,14.45Z"/><path d="M19.74,35.13a.87.87,0,0,1-.87.87H3.23a.87.87,0,0,1-.87-.87c0-10.08,4.07-13.4,5.88-14.38L6.75,16.29a.83.83,0,0,1,.12-.78.85.85,0,0,1,.7-.37h7a.87.87,0,0,1,.71.37.86.86,0,0,1,.12.78l-1.49,4.46C15.66,21.73,19.74,25.05,19.74,35.13Z"/><path d="M22.6,4.37,20,7.45a2.66,2.66,0,0,1-4.09,0l-2.49-3A2.76,2.76,0,0,1,13.62.7a2.64,2.64,0,0,1,2-.69,2.61,2.61,0,0,1,1.87,1l.52.62.44-.53A2.75,2.75,0,0,1,22.16.54a2.68,2.68,0,0,1,1,1.83A2.64,2.64,0,0,1,22.6,4.37Z"/><text x="0" y="51" fill="#000000" font-size="5px" font-weight="bold" font-family="'Helvetica Neue', Helvetica, Arial-Unicode, Arial, Sans-serif">Created by Vadim Solomakhin</text><text x="0" y="56" fill="#000000" font-size="5px" font-weight="bold" font-family="'Helvetica Neue', Helvetica, Arial-Unicode, Arial, Sans-serif">from the Noun Project</text></svg>